<svg xmlns="http://www.w3.org/2000/svg" viewBox="0 0 400 400" width="400" height="400" role="img" aria-label="St. Catherine's Passage">
  <defs>
    <linearGradient id="sky" x1="0" y1="0" x2="0" y2="1">
      <stop offset="0%" stop-color="#e8ddc8"/><stop offset="100%" stop-color="#faf5ea"/>
    </linearGradient>
  </defs>
  <rect width="400" height="400" fill="url(#sky)"/>
  <circle cx="330" cy="70" r="34" fill="#fff" opacity=".55"/>
  <g opacity=".5" fill="#ffffff">
    <ellipse cx="90" cy="90" rx="46" ry="20"/><ellipse cx="130" cy="80" rx="34" ry="16"/>
  </g>
  
    <rect x="40" y="90" width="320" height="260" fill="#ded2bd"/>
    <path d="M120 350 V210 a80 80 0 0 1 160 0 v140 z" fill="#3a2f22"/>
    <path d="M120 350 V212 a80 80 0 0 1 160 0 v138 z" fill="#6b563c" opacity=".55"/>
    <g stroke="#6b5136" stroke-width="6" opacity=".55" fill="none">
      <path d="M40 150 H360"/><path d="M40 120 H360"/>
    </g>
    <circle cx="200" cy="250" r="26" fill="#ffd166" opacity=".55"/>
  <rect y="350" width="400" height="50" fill="#7a8b6f"/>
  <rect y="350" width="400" height="8" fill="#93a487"/>
</svg>
