<svg xmlns="http://www.w3.org/2000/svg" viewBox="0 0 300 300" width="300" height="300" role="img" aria-label="Kohtuotsa Platform stamp">
  <defs>
    <path id="arcTop" d="M 48 150 A 102 102 0 0 1 252 150"/>
    <path id="arcBot" d="M 22 150 A 128 128 0 0 0 278 150"/>
    <clipPath id="inner"><circle cx="150" cy="150" r="86"/></clipPath>
    <linearGradient id="isky" x1="0" y1="0" x2="0" y2="1">
      <stop offset="0%" stop-color="#ffd9c2"/><stop offset="100%" stop-color="#fff2e6"/>
    </linearGradient>
  </defs>
  <circle cx="150" cy="150" r="146" fill="#ffffff"/>
  <circle cx="150" cy="150" r="142" fill="none" stroke="#0072ce" stroke-width="8"/>
  <circle cx="150" cy="150" r="90" fill="none" stroke="#0072ce" stroke-width="6"/>
  <g clip-path="url(#inner)">
    <rect x="60" y="60" width="180" height="180" fill="url(#isky)"/>
    <g transform="translate(150 240) scale(0.44) translate(-200 -350)">
    <rect x="30" y="250" width="80" height="100" fill="#e9dfd0"/>
    <path d="M22 252 L70 210 L118 252 Z" fill="#b8452f"/>
    <rect x="130" y="220" width="70" height="130" fill="#e9dfd0"/>
    <path d="M122 222 L165 175 L208 222 Z" fill="#b8452f"/>
    <rect x="220" y="245" width="60" height="105" fill="#e9dfd0"/>
    <path d="M212 247 L250 205 L288 247 Z" fill="#b8452f"/>
    <rect x="300" y="150" width="46" height="200" fill="#e9dfd0"/>
    <path d="M292 152 L323 95 L354 152 Z" fill="#b8452f"/>
    <g fill="#fff" opacity=".65">
      <rect x="52" y="280" width="18" height="30"/><rect x="150" y="255" width="18" height="30"/>
      <rect x="240" y="278" width="18" height="30"/><rect x="314" y="190" width="18" height="30"/>
    </g></g>
    <rect x="60" y="212" width="180" height="30" fill="#7a8b6f"/>
  </g>
  <g fill="#0072ce" font-family="'M PLUS Rounded 1c', 'Trebuchet MS', sans-serif" font-weight="800" font-size="28" letter-spacing="2">
    <text text-anchor="middle"><textPath href="#arcTop" startOffset="50%">KOHTUOTSA</textPath></text>
    <text text-anchor="middle"><textPath href="#arcBot" startOffset="50%">PLATFORM</textPath></text>
  </g>
  <circle cx="42" cy="150" r="5" fill="#0072ce"/><circle cx="258" cy="150" r="5" fill="#0072ce"/>
</svg>
