<svg xmlns="http://www.w3.org/2000/svg" viewBox="0 0 300 300" width="300" height="300" role="img" aria-label="Alexander Nevsky Cathedral stamp">
  <defs>
    <path id="arcTop" d="M 48 150 A 102 102 0 0 1 252 150"/>
    <path id="arcBot" d="M 22 150 A 128 128 0 0 0 278 150"/>
    <clipPath id="inner"><circle cx="150" cy="150" r="86"/></clipPath>
    <linearGradient id="isky" x1="0" y1="0" x2="0" y2="1">
      <stop offset="0%" stop-color="#d8e8ff"/><stop offset="100%" stop-color="#f6faff"/>
    </linearGradient>
  </defs>
  <circle cx="150" cy="150" r="146" fill="#ffffff"/>
  <circle cx="150" cy="150" r="142" fill="none" stroke="#0072ce" stroke-width="8"/>
  <circle cx="150" cy="150" r="90" fill="none" stroke="#0072ce" stroke-width="6"/>
  <g clip-path="url(#inner)">
    <rect x="60" y="60" width="180" height="180" fill="url(#isky)"/>
    <g transform="translate(150 240) scale(0.44) translate(-200 -350)">
    <rect x="80" y="215" width="240" height="135" fill="#f4ece0"/>
    <path d="M200 60 c46 34 46 92 0 92 c-46 0 -46 -58 0 -92 z" fill="#2f4858"/>
    <path d="M110 150 c30 22 30 60 0 60 c-30 0 -30 -38 0 -60 z" fill="#2f4858"/>
    <path d="M290 150 c30 22 30 60 0 60 c-30 0 -30 -38 0 -60 z" fill="#2f4858"/>
    <rect x="188" y="150" width="24" height="70" fill="#f4ece0"/>
    <rect x="100" y="205" width="20" height="16" fill="#f4ece0"/>
    <rect x="280" y="205" width="20" height="16" fill="#f4ece0"/>
    <g fill="#fff" opacity=".7">
      <rect x="130" y="250" width="26" height="52" rx="13"/>
      <rect x="187" y="250" width="26" height="52" rx="13"/>
      <rect x="244" y="250" width="26" height="52" rx="13"/>
    </g></g>
    <rect x="60" y="212" width="180" height="30" fill="#7a8b6f"/>
  </g>
  <g fill="#0072ce" font-family="'M PLUS Rounded 1c', 'Trebuchet MS', sans-serif" font-weight="800" font-size="21" letter-spacing="2">
    <text text-anchor="middle"><textPath href="#arcTop" startOffset="50%">ALEXANDER NEVSKY</textPath></text>
    <text text-anchor="middle"><textPath href="#arcBot" startOffset="50%">CATHEDRAL</textPath></text>
  </g>
  <circle cx="42" cy="150" r="5" fill="#0072ce"/><circle cx="258" cy="150" r="5" fill="#0072ce"/>
</svg>
